<svg xmlns="http://www.w3.org/2000/svg" height="24" viewBox="0 -960 960 960" width="24"><path d="M107.384-58.924q-37.307 0-62.037-24.73-24.73-24.731-24.73-62.038v-682.463q0-37.307 24.73-62.038 24.73-24.73 62.037-24.73h296.463q37.307 0 62.038 24.73 24.73 24.731 24.73 62.038v105.232h362.001q37.307 0 62.037 24.73 24.731 24.731 24.731 62.038v490.463q0 37.307-24.731 62.037-24.73 24.73-62.037 24.73H107.384Zm-.769-85.999h298.001v-106.001H106.615v106.001Zm0-192h298.001v-106.001H106.615v106.001Zm0-194h298.001v-106.001H106.615v106.001Zm0-192h298.001v-106.001H106.615v106.001Zm384 578h362.77v-492.001h-362.77v492.001Zm136.692-300.001q-17.75 0-30.374-12.629-12.625-12.629-12.625-30.384 0-17.756 12.625-30.371 12.624-12.615 30.374-12.615H713q17.75 0 30.375 12.629 12.624 12.628 12.624 30.384 0 17.755-12.624 30.371Q730.75-444.924 713-444.924h-85.693Zm0 194q-17.75 0-30.374-12.629-12.625-12.629-12.625-30.384 0-17.756 12.625-30.371 12.624-12.615 30.374-12.615H713q17.75 0 30.375 12.629 12.624 12.628 12.624 30.384 0 17.755-12.624 30.371Q730.75-250.924 713-250.924h-85.693Z"/></svg>